<?xml version="1.0" encoding="UTF-8"?>
<svg id="Calque_1" data-name="Calque 1" xmlns="http://www.w3.org/2000/svg" viewBox="0 0 197.83 132.29">
  <defs>
    <style>
      .cls-1 {
        fill: #d6a009;
      }
    </style>
  </defs>
  <g>
    <path class="cls-1" d="m139.72,58.13c-.82,0-1.57-.54-1.81-1.36-2.32-8.06-9.8-13.68-18.18-13.68-.51,0-1.03.02-1.52.06l-1.35.12-.54-1.25c-3.01-6.96-9.83-11.46-17.39-11.46s-14.39,4.5-17.4,11.46l-.54,1.25-1.35-.12c-.5-.04-1-.06-1.52-.06-8.39,0-15.86,5.63-18.18,13.68-.29,1-1.34,1.58-2.33,1.29-1-.29-1.58-1.33-1.29-2.33,2.78-9.66,11.75-16.41,21.81-16.41.17,0,.34,0,.51,0,3.84-7.66,11.67-12.53,20.3-12.53s16.45,4.88,20.29,12.53c10.29-.24,19.49,6.58,22.32,16.4.29,1-.29,2.05-1.29,2.33-.17.05-.35.07-.52.07Z"/>
    <path class="cls-1" d="m85.69,73.29c-.48,0-.96-.18-1.33-.55-.74-.74-.74-1.93,0-2.67,3.9-3.9,9.07-6.04,14.57-6.04s10.67,2.15,14.56,6.04c.74.74.74,1.93,0,2.67s-1.93.74-2.67,0c-3.18-3.18-7.41-4.94-11.9-4.94s-8.71,1.75-11.9,4.94c-.37.37-.85.55-1.33.55Z"/>
    <path class="cls-1" d="m65.94,61.91c-.17,0-.35-.02-.52-.07-1-.29-1.58-1.33-1.29-2.33,2.29-7.96,9.68-13.52,17.97-13.52.07,0,.13,0,.2,0,3.2-6.19,9.59-10.12,16.62-10.12s13.42,3.93,16.62,10.12c8.34-.08,15.85,5.5,18.17,13.52.29,1-.29,2.05-1.29,2.33-1,.29-2.05-.29-2.33-1.29-1.83-6.36-7.73-10.79-14.35-10.79-.4,0-.81.02-1.2.05l-1.35.12-.54-1.25c-2.37-5.49-7.76-9.04-13.72-9.04s-11.35,3.55-13.72,9.04l-.54,1.25-1.35-.12c-.39-.03-.79-.05-1.2-.05-6.62,0-12.52,4.44-14.35,10.79-.24.83-.99,1.36-1.81,1.36Z"/>
  </g>
  <g>
    <path class="cls-1" d="m91.84,90.35c-.82,0-1.57-.54-1.81-1.36-2.32-8.06-9.8-13.68-18.18-13.68-.51,0-1.02.02-1.52.07l-1.36.12-.54-1.25c-3.01-6.96-9.83-11.46-17.4-11.46s-14.39,4.5-17.4,11.46l-.54,1.25-1.36-.12c-.49-.04-1-.07-1.52-.07-8.39,0-15.86,5.63-18.18,13.68-.29,1-1.34,1.58-2.33,1.29-1-.29-1.58-1.33-1.29-2.33,2.78-9.66,11.75-16.41,21.81-16.41.17,0,.34,0,.51,0,3.84-7.66,11.67-12.53,20.3-12.53s16.45,4.88,20.3,12.53c10.27-.23,19.49,6.58,22.32,16.4.29,1-.29,2.05-1.29,2.33-.17.05-.35.07-.52.07Z"/>
    <path class="cls-1" d="m64.26,105.5c-.48,0-.96-.18-1.33-.55-3.18-3.18-7.41-4.94-11.9-4.94s-8.71,1.75-11.9,4.94c-.74.74-1.93.74-2.67,0s-.74-1.93,0-2.67c3.9-3.9,9.07-6.04,14.56-6.04s10.67,2.15,14.56,6.04c.74.74.74,1.93,0,2.67-.37.37-.85.55-1.33.55Z"/>
    <path class="cls-1" d="m84.01,94.12c-.82,0-1.57-.54-1.81-1.36-1.83-6.35-7.73-10.79-14.35-10.79-.4,0-.81.02-1.19.05l-1.36.12-.54-1.25c-2.37-5.49-7.76-9.04-13.72-9.04s-11.35,3.55-13.72,9.04l-.54,1.25-1.36-.12c-.39-.03-.79-.05-1.19-.05-6.62,0-12.52,4.44-14.35,10.79-.29,1-1.34,1.58-2.33,1.29-1-.29-1.58-1.33-1.29-2.33,2.29-7.96,9.68-13.52,17.97-13.52.07,0,.13,0,.19,0,3.2-6.19,9.59-10.13,16.62-10.13s13.42,3.93,16.62,10.13c.07,0,.13,0,.2,0,8.29,0,15.68,5.56,17.97,13.52.29,1-.29,2.05-1.29,2.33-.17.05-.35.07-.52.07Z"/>
  </g>
  <g>
    <path class="cls-1" d="m91.84,90.35c-.82,0-1.57-.54-1.81-1.36-2.32-8.06-9.8-13.68-18.18-13.68-.51,0-1.02.02-1.52.07l-1.36.12-.54-1.25c-3.01-6.96-9.83-11.46-17.4-11.46s-14.39,4.5-17.4,11.46l-.54,1.25-1.36-.12c-.49-.04-1-.07-1.52-.07-8.39,0-15.86,5.63-18.18,13.68-.29,1-1.34,1.58-2.33,1.29-1-.29-1.58-1.33-1.29-2.33,2.78-9.66,11.75-16.41,21.81-16.41.17,0,.34,0,.51,0,3.84-7.66,11.67-12.53,20.3-12.53s16.45,4.88,20.3,12.53c10.27-.23,19.49,6.58,22.32,16.4.29,1-.29,2.05-1.29,2.33-.17.05-.35.07-.52.07Z"/>
    <path class="cls-1" d="m64.26,105.5c-.48,0-.96-.18-1.33-.55-3.18-3.18-7.41-4.94-11.9-4.94s-8.71,1.75-11.9,4.94c-.74.74-1.93.74-2.67,0s-.74-1.93,0-2.67c3.9-3.9,9.07-6.04,14.56-6.04s10.67,2.15,14.56,6.04c.74.74.74,1.93,0,2.67-.37.37-.85.55-1.33.55Z"/>
    <path class="cls-1" d="m84.01,94.12c-.82,0-1.57-.54-1.81-1.36-1.83-6.35-7.73-10.79-14.35-10.79-.4,0-.81.02-1.19.05l-1.36.12-.54-1.25c-2.37-5.49-7.76-9.04-13.72-9.04s-11.35,3.55-13.72,9.04l-.54,1.25-1.36-.12c-.39-.03-.79-.05-1.19-.05-6.62,0-12.52,4.44-14.35,10.79-.29,1-1.34,1.58-2.33,1.29-1-.29-1.58-1.33-1.29-2.33,2.29-7.96,9.68-13.52,17.97-13.52.07,0,.13,0,.19,0,3.2-6.19,9.59-10.13,16.62-10.13s13.42,3.93,16.62,10.13c.07,0,.13,0,.2,0,8.29,0,15.68,5.56,17.97,13.52.29,1-.29,2.05-1.29,2.33-.17.05-.35.07-.52.07Z"/>
  </g>
  <g>
    <path class="cls-1" d="m187.6,90.35c-.82,0-1.57-.54-1.81-1.36-2.32-8.06-9.8-13.68-18.18-13.68-.51,0-1.02.02-1.52.07l-1.36.12-.54-1.25c-3.01-6.96-9.83-11.46-17.4-11.46s-14.39,4.5-17.39,11.46l-.54,1.25-1.36-.12c-.49-.04-1-.07-1.52-.07-8.39,0-15.86,5.63-18.18,13.68-.29,1-1.34,1.58-2.33,1.29-1-.29-1.58-1.33-1.29-2.33,2.78-9.66,11.75-16.41,21.81-16.41.17,0,.34,0,.51,0,3.84-7.66,11.67-12.53,20.29-12.53s16.45,4.88,20.3,12.53c10.24-.23,19.49,6.58,22.32,16.4.29,1-.29,2.05-1.29,2.33-.17.05-.35.07-.52.07Z"/>
    <path class="cls-1" d="m160.03,105.5c-.48,0-.96-.18-1.33-.55-3.18-3.18-7.41-4.94-11.9-4.94s-8.71,1.75-11.9,4.94c-.74.74-1.93.74-2.67,0s-.74-1.93,0-2.67c3.9-3.9,9.07-6.04,14.56-6.04s10.67,2.15,14.57,6.04c.74.74.74,1.93,0,2.67-.37.37-.85.55-1.33.55Z"/>
    <path class="cls-1" d="m179.77,94.12c-.82,0-1.57-.54-1.81-1.36-1.83-6.36-7.73-10.79-14.35-10.79-.4,0-.8.02-1.19.05l-1.36.12-.54-1.25c-2.37-5.49-7.76-9.04-13.72-9.04s-11.35,3.55-13.72,9.04l-.54,1.25-1.36-.12c-.39-.03-.79-.05-1.19-.05-6.62,0-12.52,4.44-14.35,10.79-.29,1-1.34,1.58-2.33,1.29-1-.29-1.58-1.33-1.29-2.33,2.29-7.96,9.68-13.52,17.97-13.52.07,0,.13,0,.2,0,3.2-6.19,9.59-10.13,16.62-10.13s13.42,3.93,16.62,10.13c8.36-.14,15.86,5.5,18.17,13.52.29,1-.29,2.05-1.29,2.33-.17.05-.35.07-.52.07Z"/>
  </g>
</svg>