<?xml version="1.0" encoding="UTF-8"?>
<svg id="Calque_1" data-name="Calque 1" xmlns="http://www.w3.org/2000/svg" viewBox="0 0 180 180">
  <defs>
    <style>
      .cls-1 {
        fill: #d6a009;
      }
    </style>
  </defs>
  <path class="cls-1" d="m112.43,87.8c4.96,0,9.62-1.47,11.56-4.65,1.68-2.76,1.4-6.99-.77-11.6-1.62-3.43-4.02-6.51-6.63-8.61,6.29-4.64,11.26-14.42,8.2-19.9-3.07-5.51-14.12-6.43-21.38-3.45-.93-7.79-7.1-17-13.42-17s-12.03,8.55-13.3,16.14c-2.95-1.18-6.52-1.79-10.03-1.67-5.1.17-8.98,1.86-10.67,4.62-3.27,5.35,1.3,15.32,7.41,20.21-6.29,4.64-11.25,14.42-8.2,19.9,1.57,2.83,5.39,4.66,10.48,5.04.64.05,1.28.07,1.93.07,3.2,0,6.36-.59,8.97-1.66.93,7.79,7.1,16.99,13.42,16.99s12.03-8.54,13.29-16.13c2.76,1.11,6.01,1.7,9.14,1.7Zm7.23-14.57c1.55,3.29,1.93,6.31.97,7.87-2.02,3.3-11.54,3.64-17.09.79-.03-6.39-.49-12.66-7.32-14.88.11-.2.21-.39.34-.59.17-.28.34-.54.5-.79,2.09,1.94,4.26,2.69,6.46,2.69,3.09,0,6.26-1.48,9.4-3.18,2.56,1.6,5.13,4.68,6.73,8.09Zm-25.05-2.59c3.82,1.09,4.73,3.93,4.94,8.79-4.04-2.71-6-4.97-4.94-8.79Zm-7.9-6.39c-.39-.69-.78-1.33-1.17-1.92.42-.57.83-1.19,1.24-1.87.4-.65.74-1.28,1.05-1.89.68.05,1.39.09,2.16.09.8,0,1.55-.03,2.26-.09.29.65.63,1.32,1.02,2.02.39.7.78,1.33,1.17,1.92-.42.58-.83,1.2-1.25,1.87-.4.65-.74,1.28-1.05,1.89-.68-.05-1.4-.09-2.16-.09-.8,0-1.55.03-2.26.09-.3-.66-.63-1.33-1.02-2.02Zm12.88-1.64c1.49-1.32,2.75-1.6,3.79-1.6.07,0,.14,0,.22,0,1.56.05,3.32.74,5.3,1.79-3.93,1.89-6.68,2.3-9.3-.19Zm21.76-17.64c1.95,3.51-2.87,12.51-8.34,15.64-3.38-1.99-6.34-3.42-9.29-3.52-2.39-.07-4.52.73-6.52,2.41-.16-.27-.32-.52-.49-.82-.17-.3-.31-.58-.45-.87,6.46-2.12,7.19-7.89,7.27-13.93,0,0,0,0,0,0,2.4-1.34,5.71-1.97,8.85-1.97,4.07,0,7.85,1.07,8.96,3.07Zm-21.84,1.27c-.27,4.25-1.25,6.8-4.63,7.88-.7-3.48,1.05-5.58,4.63-7.88Zm-9.51-19.7c4.04,0,9.62,8.7,9.62,15.02h0c-5.24,3.03-9.93,6.47-8.64,13.14-.32.01-.63.03-.98.03-.24,0-.45-.01-.68-.02,1.66-6.98-3.45-10.64-8.89-13.99.45-6.22,5.7-14.18,9.57-14.18Zm-4.62,27.66c-3.82-1.09-4.73-3.93-4.94-8.79,4.04,2.71,6,4.97,4.94,8.79Zm-26.02-10.46c.95-1.56,3.81-2.61,7.45-2.74.25,0,.49-.01.74-.01,3.24,0,6.51.73,8.9,1.96.03,6.39.49,12.66,7.32,14.88-.12.2-.21.39-.34.59-.17.28-.34.52-.51.78-5.04-4.66-10.49-2.41-15.86.5-5.34-3.35-9.8-12.53-7.7-15.96Zm21.04,18.5c-2.72,2.39-5.45,1.87-9.31-.18,3.93-1.9,6.68-2.31,9.31.18Zm-14.43,20.68c-3.63-.27-6.44-1.43-7.33-3.03-1.95-3.51,2.86-12.51,8.33-15.64,3.2,1.9,6.43,3.55,9.65,3.55,2.07,0,4.13-.69,6.17-2.43.16.26.32.51.48.8.17.3.32.59.46.87-6.47,2.12-7.2,7.89-7.28,13.94,0,0,0,0,0,0-2.65,1.48-6.66,2.22-10.47,1.94Zm18.55-7.97c-.8,1.3-2.22,2.47-4.04,3.65.27-4.25,1.25-6.79,4.64-7.87.43,2.05-.04,3.31-.6,4.22Zm5.47,23.36c-4.04,0-9.62-8.7-9.62-15.02v-.02c3.33-1.93,5.98-3.78,7.5-6.26,1.25-2.04,1.61-4.29,1.12-6.85.33-.01.64-.03,1-.03.24,0,.45.01.69.02-1.66,6.98,3.45,10.64,8.89,14-.45,6.22-5.7,14.18-9.57,14.18Z"/>
  <path class="cls-1" d="m74.23,98.22c-1.57-2.83-5.39-4.66-10.48-5.04-3.84-.29-7.76.31-10.9,1.59-.93-7.79-7.1-17-13.42-17s-12.03,8.55-13.3,16.14c-7.14-2.87-17.53-2.24-20.7,2.95-3.27,5.36,1.31,15.32,7.41,20.21-2.7,1.99-5.22,4.98-6.97,8.34-2.36,4.52-2.81,8.73-1.23,11.56,1.57,2.83,5.39,4.66,10.48,5.04.64.05,1.28.07,1.93.07,3.2,0,6.36-.59,8.97-1.66.93,7.79,7.1,16.99,13.42,16.99s12.03-8.54,13.29-16.13c2.7,1.08,5.92,1.68,9.15,1.68.29,0,.59,0,.89-.02,5.1-.18,8.98-1.86,10.67-4.62,1.68-2.76,1.4-6.99-.77-11.6-1.62-3.43-4.02-6.51-6.63-8.61,6.29-4.64,11.26-14.42,8.21-19.9Zm-10.77-1.11c3.63.27,6.44,1.43,7.33,3.03,1.95,3.51-2.86,12.5-8.33,15.64-5.25-3.12-10.61-5.58-15.83-1.12-.15-.26-.31-.52-.47-.8-.17-.3-.32-.59-.46-.87,6.47-2.12,7.2-7.89,7.28-13.93,0,0,0,0,0,0,2.28-1.27,5.56-2,8.86-2,.54,0,1.08.02,1.62.06Zm-5.13,20.86c-2.01.96-3.78,1.57-5.34,1.57h-.03c-1.08,0-2.4-.27-3.93-1.75,1.25-1.1,2.5-1.6,3.86-1.6,1.6,0,3.36.67,5.44,1.78Zm-16.73,3.47c-.68-.05-1.39-.09-2.16-.09-.8,0-1.55.03-2.26.09-.29-.65-.63-1.32-1.02-2.02-.39-.7-.78-1.33-1.17-1.92.42-.58.84-1.19,1.25-1.87.39-.65.75-1.27,1.06-1.89.68.05,1.39.08,2.15.08.8,0,1.55-.03,2.27-.09.3.66.63,1.33,1.02,2.02.38.69.77,1.32,1.17,1.92-.42.57-.83,1.19-1.25,1.87-.4.65-.74,1.28-1.05,1.89Zm3.31-16.37c.8-1.3,2.22-2.47,4.04-3.65-.27,4.25-1.26,6.79-4.64,7.87-.43-2.05.04-3.31.6-4.22Zm-5.47-23.36c4.04,0,9.62,8.7,9.62,15.02v.02c-3.33,1.93-5.98,3.78-7.5,6.26-1.25,2.04-1.61,4.29-1.12,6.85-.33.01-.64.03-1,.03-.25,0-.46-.01-.7-.02.6-2.56.34-4.84-.83-6.93-1.53-2.74-4.41-4.8-8.04-7.06.45-6.22,5.7-14.18,9.57-14.18Zm-4.62,27.66c-3.82-1.09-4.73-3.93-4.94-8.79,2.11,1.42,3.75,2.78,4.58,4.28.54.97.97,2.32.35,4.51Zm-26.02-10.46c2.02-3.3,11.54-3.64,17.09-.79.03,6.39.49,12.66,7.33,14.88-.11.2-.22.39-.35.59-.17.28-.33.54-.5.79-5.04-4.67-10.49-2.42-15.86.49-5.34-3.35-9.8-12.53-7.71-15.96Zm21.05,18.51c-1.58,1.41-2.91,1.63-4,1.59-1.56-.05-3.32-.74-5.3-1.79,2.03-.98,3.74-1.56,5.28-1.56,1.45,0,2.75.55,4.03,1.76Zm-14.44,20.67c-3.63-.27-6.44-1.43-7.33-3.03-.89-1.6-.4-4.6,1.28-7.83,1.74-3.34,4.44-6.32,7.06-7.82,3.38,1.99,6.34,3.42,9.29,3.52.12,0,.23,0,.34,0,2.25,0,4.28-.8,6.17-2.42.16.27.32.52.49.81.17.3.31.58.45.87-6.46,2.12-7.19,7.89-7.27,13.93,0,0,0,0,0,0-2.65,1.48-6.66,2.22-10.47,1.94Zm14.51-4.3c.27-4.25,1.25-6.8,4.63-7.88.7,3.48-1.05,5.58-4.63,7.88Zm9.51,19.7c-4.04,0-9.62-8.7-9.62-15.02h0c5.24-3.02,9.93-6.47,8.64-13.14.32-.01.63-.03.98-.03.24,0,.45.01.69.02-1.66,6.98,3.45,10.64,8.89,13.99-.45,6.22-5.7,14.18-9.57,14.18Zm4.62-27.66c3.82,1.09,4.73,3.93,4.94,8.79-4.04-2.71-6-4.97-4.94-8.79Zm25.05,2.59c1.55,3.29,1.93,6.31.97,7.87s-3.81,2.61-7.44,2.74c-3.47.1-7.07-.63-9.64-1.95-.03-6.39-.49-12.66-7.32-14.88.12-.2.21-.39.34-.6.17-.29.34-.53.52-.79,1.93,1.77,4.03,2.65,6.42,2.67h.05c2.94,0,5.93-1.31,9.37-3.15,2.56,1.6,5.13,4.68,6.74,8.09Z"/>
  <path class="cls-1" d="m167.14,118.12c2.7-1.99,5.22-4.98,6.97-8.34,2.36-4.52,2.81-8.73,1.23-11.56s-5.39-4.66-10.48-5.04c-3.84-.29-7.76.31-10.9,1.59-.93-7.79-7.1-17-13.42-17s-12.03,8.55-13.3,16.14c-2.95-1.18-6.51-1.79-10.03-1.67-5.1.18-8.98,1.86-10.67,4.62-1.68,2.76-1.4,6.99.77,11.6,1.62,3.43,4.02,6.51,6.63,8.61-6.29,4.64-11.26,14.42-8.21,19.9,1.57,2.83,5.39,4.66,10.48,5.04.64.05,1.28.07,1.93.07,3.2,0,6.36-.59,8.97-1.66.93,7.79,7.1,17,13.42,17s12.03-8.54,13.29-16.13c2.76,1.11,6.01,1.7,9.14,1.7,4.96,0,9.62-1.47,11.56-4.65,3.27-5.36-1.31-15.32-7.41-20.21Zm-2.56-21.01c3.63.27,6.44,1.43,7.33,3.03.89,1.6.4,4.6-1.28,7.83-1.74,3.34-4.44,6.32-7.06,7.82-3.38-1.99-6.34-3.42-9.29-3.52-2.37-.07-4.52.73-6.52,2.43-.16-.26-.32-.54-.48-.83-.17-.3-.32-.59-.46-.87,6.47-2.12,7.2-7.89,7.28-13.94,0,0,0,0,0,0,2.28-1.27,5.56-2,8.86-2,.54,0,1.08.02,1.62.06Zm-5.14,20.86c-2.01.96-3.77,1.57-5.33,1.57h-.03c-1.08,0-2.4-.28-3.94-1.75,1.49-1.32,2.75-1.6,3.79-1.6.07,0,.14,0,.22,0,1.56.05,3.31.74,5.29,1.78Zm-16.73,3.47c-.68-.05-1.39-.08-2.15-.08-.8,0-1.55.03-2.27.09-.3-.66-.63-1.33-1.02-2.02-.38-.69-.77-1.32-1.17-1.92.42-.57.83-1.19,1.24-1.87.4-.65.74-1.28,1.05-1.89.68.05,1.39.09,2.16.09.8,0,1.55-.03,2.26-.09.3.66.63,1.33,1.02,2.02.38.69.78,1.33,1.17,1.92-.42.58-.84,1.19-1.25,1.87-.39.65-.75,1.27-1.06,1.89Zm3.32-16.37c.8-1.3,2.22-2.47,4.04-3.65-.27,4.25-1.25,6.8-4.64,7.87-.43-2.05.04-3.31.6-4.22Zm-5.47-23.36c4.04,0,9.62,8.7,9.62,15.02v.02c-3.33,1.93-5.98,3.78-7.5,6.26-1.25,2.04-1.61,4.29-1.12,6.85-.33.01-.64.03-1,.03-.24,0-.45-.01-.69-.02,1.66-6.98-3.45-10.64-8.89-13.99.45-6.22,5.7-14.18,9.57-14.18Zm-4.62,27.66c-3.82-1.09-4.73-3.93-4.94-8.79,4.04,2.71,6,4.97,4.94,8.79Zm-25.05-2.59c-1.55-3.29-1.93-6.31-.97-7.87s3.81-2.61,7.44-2.74c.25,0,.49-.01.74-.01,3.24,0,6.51.73,8.9,1.96.03,6.39.49,12.66,7.32,14.88-.12.2-.21.39-.34.6-.17.29-.34.53-.52.79-1.93-1.77-4.03-2.65-6.42-2.67-2.94-.02-5.96,1.3-9.42,3.15-2.56-1.6-5.13-4.68-6.74-8.09Zm20.07,10.62c-2.72,2.39-5.45,1.87-9.3-.18,2.01-.96,3.78-1.57,5.34-1.57h.03c1.08,0,2.4.27,3.93,1.75Zm-14.43,20.68c-3.63-.27-6.44-1.43-7.33-3.03-1.95-3.51,2.86-12.51,8.33-15.64,3.2,1.9,6.43,3.56,9.65,3.56,2.07,0,4.13-.69,6.18-2.44.16.26.31.52.47.81.17.3.32.59.46.87-6.47,2.12-7.2,7.89-7.28,13.93,0,0,0,0,0,0-2.65,1.48-6.65,2.22-10.47,1.94Zm18.55-7.97c-.8,1.3-2.22,2.47-4.04,3.65.27-4.25,1.26-6.79,4.64-7.87.43,2.05-.04,3.31-.6,4.22Zm5.47,23.36c-4.04,0-9.62-8.7-9.62-15.02v-.02c3.33-1.93,5.98-3.78,7.5-6.26,1.25-2.04,1.61-4.29,1.12-6.85.33-.01.64-.03,1-.03.25,0,.46.01.7.02-.6,2.56-.34,4.84.83,6.93,1.53,2.74,4.41,4.8,8.04,7.06-.45,6.22-5.7,14.18-9.57,14.18Zm4.62-27.66c3.82,1.09,4.73,3.93,4.94,8.79-2.11-1.42-3.75-2.78-4.58-4.28-.54-.97-.97-2.32-.35-4.51Zm26.02,10.46c-2.02,3.3-11.54,3.64-17.09.79-.03-6.39-.49-12.66-7.33-14.88.11-.2.22-.39.35-.59.17-.28.34-.55.51-.8,1.93,1.78,4.03,2.66,6.43,2.67h.05c2.94,0,5.93-1.31,9.37-3.15,5.35,3.35,9.8,12.53,7.71,15.96Z"/>
</svg>