<?xml version="1.0" encoding="UTF-8"?>
<svg id="Calque_1" data-name="Calque 1" xmlns="http://www.w3.org/2000/svg" viewBox="0 0 180 180">
  <defs>
    <style>
      .cls-1 {
        fill: #d6a009;
      }
    </style>
  </defs>
  <path class="cls-1" d="M62.25,92.38c-7.78-3.78-15.13-7.35-15.13-12.52,0-1.1-.9-2-2-2,0,0-.01,0-.02,0s-.01,0-.02,0c-1.1,0-2,.9-2,2,0,5.17-7.35,8.74-15.13,12.52-10.62,5.16-22.65,11-22.65,23.5,0,8.13,3.67,14.31,10.08,16.97,5.52,2.29,12.24,1.46,15.62-1.92,5.1-5.1,2.45-11.17.33-13.67-.46-.54-1.17-.8-1.86-.68-.7.12-1.28.6-1.53,1.26-.58,1.54-2.12,1.77-2.76,1.8-1.17.06-2.65-.43-3.24-1.64-.81-1.66-.67-3.23.42-4.67,1.7-2.26,5.26-3.51,8.48-2.96,3.7.64,6.51,3.45,7.91,7.91,1.2,3.84.62,13.71-3.32,17.13-.59.51-.82,1.32-.6,2.07.22.75.85,1.3,1.62,1.42.68.1,6.65,1.18,6.65,7.04,0,1.1.9,2,2,2s2-.9,2-2c0-5.87,5.97-6.94,6.64-7.04.78-.11,1.42-.66,1.64-1.41.22-.75-.02-1.56-.61-2.08-3.94-3.42-4.52-13.29-3.32-17.13,1.4-4.47,4.2-7.28,7.91-7.91,3.22-.55,6.78.69,8.48,2.96,1.08,1.45,1.22,3.02.42,4.67-.59,1.21-2.06,1.7-3.24,1.64-.63-.03-2.17-.26-2.76-1.8-.25-.66-.83-1.14-1.53-1.26-.7-.12-1.41.14-1.86.68-2.12,2.5-4.78,8.57.33,13.67,3.38,3.38,10.1,4.21,15.62,1.92,6.41-2.65,10.08-8.84,10.08-16.97,0-12.5-12.03-18.34-22.65-23.5ZM73.29,129.15c-4.46,1.85-9.32.89-11.26-1.05-2.11-2.11-1.97-4.35-1.39-5.97,1.15.9,2.6,1.43,4.2,1.51,3.05.15,5.8-1.38,7.02-3.88,1.46-2.98,1.16-6.2-.81-8.83-2.59-3.45-7.67-5.3-12.36-4.5-3.04.52-8.53,2.61-11.05,10.66-1.28,4.1-1.07,13.21,2.37,18.77-1.74.75-3.56,1.96-4.9,3.77-1.34-1.8-3.16-3.02-4.9-3.77,3.44-5.55,3.65-14.67,2.37-18.77-2.52-8.06-8-10.14-11.05-10.66-4.69-.81-9.77,1.04-12.36,4.5-1.97,2.63-2.27,5.85-.81,8.83,1.22,2.5,3.97,4.03,7.02,3.88,1.6-.07,3.05-.61,4.2-1.51.58,1.62.72,3.86-1.39,5.97-1.94,1.94-6.8,2.9-11.26,1.05-2.84-1.18-7.61-4.47-7.61-13.27,0-10,10.37-15.03,20.39-19.9,6.32-3.07,12.38-6.03,15.4-10.21,3.01,4.18,9.07,7.14,15.4,10.21,10.03,4.87,20.39,9.91,20.39,19.9,0,8.8-4.77,12.09-7.61,13.27Z"/>
  <path class="cls-1" d="M152.04,92.38c-7.78-3.78-15.13-7.35-15.13-12.52,0-1.1-.9-2-2-2,0,0-.01,0-.02,0,0,0-.01,0-.02,0-1.1,0-2,.9-2,2,0,5.17-7.35,8.74-15.13,12.52-10.61,5.16-22.65,11-22.65,23.5,0,8.13,3.67,14.31,10.08,16.97,5.52,2.29,12.24,1.46,15.62-1.92,5.1-5.1,2.45-11.17.33-13.67-.46-.54-1.17-.8-1.86-.68-.7.12-1.28.6-1.53,1.26-.58,1.54-2.12,1.77-2.75,1.8-1.18.07-2.65-.43-3.24-1.64-.81-1.66-.67-3.23.42-4.67,1.7-2.27,5.27-3.51,8.48-2.96,3.7.64,6.51,3.45,7.91,7.91,1.2,3.83.62,13.71-3.32,17.13-.59.51-.82,1.32-.6,2.07.22.75.85,1.3,1.62,1.42.68.1,6.65,1.18,6.65,7.04,0,1.1.9,2,2,2s2-.9,2-2c0-5.87,5.97-6.94,6.64-7.04.78-.11,1.42-.66,1.64-1.41.22-.75-.02-1.56-.61-2.08-3.94-3.42-4.52-13.29-3.32-17.13,1.4-4.47,4.2-7.28,7.91-7.91,3.21-.55,6.78.69,8.48,2.96,1.08,1.45,1.22,3.02.42,4.67-.59,1.21-2.05,1.7-3.24,1.64-.63-.03-2.17-.26-2.75-1.8-.25-.66-.83-1.14-1.53-1.26-.7-.12-1.41.14-1.86.68-2.12,2.5-4.78,8.57.33,13.67,3.38,3.38,10.09,4.2,15.62,1.92,6.41-2.65,10.08-8.84,10.08-16.97,0-12.5-12.03-18.34-22.65-23.5ZM163.07,129.15c-4.46,1.85-9.31.89-11.26-1.05-2.11-2.11-1.97-4.35-1.39-5.97,1.14.9,2.6,1.43,4.2,1.51,3.06.15,5.8-1.38,7.02-3.88,1.46-2.98,1.16-6.2-.81-8.83-2.59-3.45-7.67-5.3-12.36-4.5-3.04.52-8.53,2.61-11.05,10.66-1.28,4.1-1.07,13.21,2.37,18.77-1.74.75-3.56,1.96-4.9,3.77-1.34-1.8-3.16-3.02-4.9-3.77,3.44-5.55,3.65-14.67,2.37-18.77-2.52-8.06-8-10.14-11.05-10.66-4.69-.81-9.77,1.04-12.36,4.5-1.97,2.63-2.27,5.85-.81,8.83,1.22,2.5,3.97,4.03,7.02,3.88,1.6-.07,3.05-.61,4.2-1.51.58,1.62.72,3.86-1.39,5.97-1.94,1.94-6.8,2.9-11.26,1.05-2.84-1.18-7.61-4.47-7.61-13.27,0-10,10.37-15.03,20.39-19.9,6.32-3.07,12.38-6.03,15.4-10.21,3.01,4.18,9.07,7.14,15.4,10.21,10.03,4.87,20.39,9.91,20.39,19.9,0,8.8-4.77,12.09-7.61,13.27Z"/>
  <path class="cls-1" d="M100.27,87.13c.22-.75-.02-1.56-.61-2.08-3.94-3.42-4.52-13.29-3.32-17.13,1.4-4.46,4.2-7.27,7.91-7.91,3.22-.55,6.78.69,8.48,2.96,1.08,1.45,1.22,3.02.42,4.67-.59,1.21-2.03,1.71-3.24,1.64-.63-.03-2.17-.26-2.76-1.8-.25-.66-.83-1.14-1.53-1.26-.7-.12-1.41.14-1.86.68-2.12,2.5-4.78,8.57.33,13.67,3.38,3.38,10.09,4.21,15.62,1.92,6.41-2.65,10.08-8.84,10.08-16.97,0-12.5-12.03-18.34-22.65-23.5-7.78-3.78-15.13-7.35-15.13-12.52,0-1.1-.9-2-2-2,0,0-.01,0-.02,0,0,0-.01,0-.02,0-1.1,0-2,.9-2,2,0,5.17-7.35,8.74-15.13,12.52-10.62,5.16-22.65,11-22.65,23.5,0,8.13,3.67,14.31,10.08,16.97,5.52,2.29,12.24,1.46,15.62-1.92,5.1-5.1,2.45-11.17.33-13.67-.46-.54-1.17-.8-1.86-.68-.7.12-1.28.6-1.53,1.26-.58,1.54-2.12,1.77-2.76,1.8-1.22.07-2.65-.43-3.24-1.64-.81-1.65-.67-3.23.42-4.67,1.7-2.27,5.26-3.51,8.48-2.96,3.7.64,6.51,3.45,7.91,7.91,1.2,3.84.62,13.71-3.32,17.13-.59.51-.82,1.32-.6,2.07.22.75.85,1.3,1.62,1.42.68.1,6.65,1.18,6.65,7.04,0,1.1.9,2,2,2s2-.9,2-2c0-5.87,5.97-6.94,6.64-7.04.78-.11,1.42-.66,1.64-1.41ZM90,89.27c-1.34-1.8-3.16-3.02-4.9-3.77,3.44-5.55,3.65-14.67,2.37-18.77-2.52-8.06-8-10.14-11.05-10.66-4.69-.8-9.77,1.04-12.36,4.5-1.97,2.63-2.26,5.84-.81,8.83,1.22,2.5,3.98,4.03,7.02,3.88,1.6-.07,3.05-.61,4.2-1.51.58,1.62.72,3.86-1.39,5.97-1.94,1.94-6.8,2.9-11.26,1.05-2.84-1.18-7.61-4.47-7.61-13.27,0-10,10.37-15.03,20.39-19.9,6.32-3.07,12.38-6.03,15.4-10.21,3.01,4.18,9.07,7.14,15.4,10.21,10.03,4.87,20.39,9.91,20.39,19.9,0,8.8-4.77,12.09-7.61,13.27-4.46,1.85-9.32.89-11.26-1.05-2.11-2.11-1.97-4.35-1.39-5.97,1.15.9,2.6,1.43,4.2,1.51,3.03.15,5.8-1.39,7.02-3.88,1.46-2.98,1.16-6.2-.81-8.83-2.59-3.45-7.67-5.3-12.36-4.5-3.04.52-8.53,2.6-11.05,10.66-1.28,4.1-1.07,13.21,2.37,18.77-1.74.75-3.56,1.96-4.9,3.77Z"/>
</svg>