<?xml version="1.0" encoding="UTF-8"?>
<svg id="Calque_1" data-name="Calque 1" xmlns="http://www.w3.org/2000/svg" viewBox="0 0 197.83 132.29">
  <defs>
    <style>
      .cls-1 {
        fill: #d6a009;
      }
    </style>
  </defs>
  <g>
    <path class="cls-1" d="m140.05,61.82c-.66,0-1.29-.36-1.62-.98-7.69-14.84-22.83-24.06-39.51-24.06s-31.83,9.22-39.51,24.06c-.46.89-1.56,1.24-2.45.78-.89-.46-1.24-1.56-.78-2.45,8.31-16.05,24.69-26.03,42.74-26.03s34.43,9.97,42.74,26.03c.46.89.11,1.99-.78,2.45-.27.14-.55.2-.83.2Z"/>
    <path class="cls-1" d="m130.54,64.26c-.62,0-1.22-.32-1.56-.89-6.29-10.54-17.81-17.09-30.06-17.09s-23.77,6.55-30.06,17.09c-.51.86-1.63,1.14-2.49.63-.86-.52-1.15-1.63-.63-2.49,6.94-11.64,19.66-18.87,33.19-18.87s26.25,7.23,33.19,18.87c.52.86.23,1.98-.63,2.49-.29.17-.61.26-.93.26Z"/>
    <path class="cls-1" d="m76.57,68.99c-.33,0-.67-.09-.97-.28-.85-.54-1.1-1.66-.56-2.51,5.22-8.25,14.15-13.18,23.89-13.18s18.67,4.92,23.89,13.17c.54.85.28,1.97-.56,2.51s-1.97.28-2.51-.56c-4.55-7.19-12.33-11.48-20.81-11.48s-16.27,4.29-20.82,11.49c-.35.55-.94.85-1.54.85Z"/>
  </g>
  <g>
    <path class="cls-1" d="m188.99,91.98c-.66,0-1.29-.36-1.62-.98-7.69-14.84-22.83-24.06-39.51-24.06s-31.83,9.22-39.51,24.06c-.46.89-1.56,1.24-2.45.78-.89-.46-1.24-1.56-.78-2.45,8.31-16.05,24.69-26.03,42.74-26.03s34.43,9.97,42.74,26.03c.46.89.11,1.99-.78,2.45-.27.14-.55.2-.83.2Z"/>
    <path class="cls-1" d="m179.48,94.42c-.62,0-1.22-.32-1.56-.89-6.29-10.54-17.81-17.09-30.06-17.09s-23.77,6.55-30.06,17.09c-.51.86-1.63,1.14-2.49.63-.86-.51-1.15-1.63-.63-2.49,6.94-11.64,19.66-18.87,33.19-18.87s26.25,7.23,33.19,18.87c.52.86.23,1.98-.63,2.49-.29.17-.61.26-.93.26Z"/>
    <path class="cls-1" d="m125.51,99.15c-.33,0-.67-.09-.97-.28-.85-.54-1.1-1.66-.56-2.51,5.22-8.25,14.15-13.18,23.89-13.18s18.67,4.92,23.89,13.17c.54.85.28,1.97-.56,2.51s-1.97.28-2.51-.56c-4.55-7.19-12.33-11.48-20.81-11.48s-16.27,4.29-20.82,11.49c-.35.55-.94.85-1.54.85Z"/>
  </g>
  <g>
    <path class="cls-1" d="m91.11,91.98c-.66,0-1.29-.36-1.62-.98-7.69-14.84-22.83-24.06-39.51-24.06s-31.83,9.22-39.51,24.06c-.46.89-1.56,1.24-2.45.78-.89-.46-1.24-1.56-.78-2.45,8.31-16.05,24.69-26.03,42.74-26.03s34.43,9.97,42.74,26.03c.46.89.11,1.99-.78,2.45-.27.14-.55.2-.83.2Z"/>
    <path class="cls-1" d="m81.6,94.42c-.62,0-1.22-.32-1.56-.89-6.29-10.54-17.81-17.09-30.06-17.09s-23.77,6.55-30.06,17.09c-.51.86-1.63,1.14-2.49.63-.86-.51-1.15-1.63-.63-2.49,6.94-11.64,19.66-18.87,33.19-18.87s26.25,7.23,33.19,18.87c.52.86.23,1.98-.63,2.49-.29.17-.61.26-.93.26Z"/>
    <path class="cls-1" d="m27.63,99.15c-.33,0-.67-.09-.97-.28-.85-.54-1.1-1.66-.56-2.51,5.22-8.25,14.15-13.18,23.89-13.18s18.67,4.92,23.89,13.17c.54.85.28,1.97-.56,2.51s-1.97.28-2.51-.56c-4.55-7.19-12.33-11.48-20.81-11.48s-16.27,4.29-20.82,11.49c-.35.55-.94.85-1.54.85Z"/>
  </g>
</svg>