<?xml version="1.0" encoding="UTF-8"?>
<svg id="Calque_1" data-name="Calque 1" xmlns="http://www.w3.org/2000/svg" viewBox="0 0 197.83 132.29">
  <defs>
    <style>
      .cls-1 {
        fill: #d6a009;
      }
    </style>
  </defs>
  <path class="cls-1" d="m141.82,47.48c-.95-1.64-2.54-2.83-4.38-3.27-.6-.14-1.21-.2-1.81-.17.18-.57.3-1.16.32-1.78.05-1.88-.69-3.73-2.02-5.06s-3.19-2.1-5.08-2.02c-.62.02-1.2.14-1.76.32.02-.6-.03-1.21-.18-1.82-.44-1.83-1.63-3.42-3.26-4.37-1.64-.95-3.62-1.18-5.43-.64-.59.18-1.12.45-1.62.76-.13-.59-.34-1.16-.64-1.71-.9-1.66-2.46-2.88-4.28-3.37-1.83-.49-3.8-.2-5.41.79-.53.32-.97.72-1.37,1.16-.28-.53-.63-1.03-1.06-1.49-1.3-1.37-3.12-2.15-5.01-2.15s-3.72.79-5.02,2.16c-.43.45-.78.95-1.05,1.48-.41-.44-.85-.84-1.38-1.17-1.6-.98-3.57-1.27-5.4-.78-1.83.49-3.39,1.72-4.29,3.39-.3.55-.5,1.12-.64,1.7-.5-.32-1.04-.59-1.64-.77-1.81-.54-3.78-.3-5.41.64-1.64.95-2.83,2.54-3.27,4.38-.14.6-.2,1.21-.17,1.8-.57-.18-1.16-.3-1.78-.32-1.88-.03-3.73.69-5.06,2.02-1.34,1.34-2.08,3.19-2.02,5.08.02.62.14,1.2.32,1.76-.6-.02-1.21.03-1.82.18-1.83.44-3.42,1.63-4.36,3.26-.95,1.64-1.18,3.62-.64,5.43.51,1.72,1.65,3.1,3.21,3.89,7.38,3.74,29.43,12.97,30.74,13.52.03.04.05.09.09.13.32.39.8.62,1.31.63l16.71.24h.02c.45,0,.89-.18,1.21-.5.11-.11.2-.23.27-.36,2.1-.9,23.32-9.98,30.53-13.66,1.56-.8,2.7-2.18,3.21-3.9.53-1.81.3-3.78-.64-5.41Zm-12.88-8.86s.06,0,.09,0c.92,0,1.8.37,2.45,1.02.67.67,1.04,1.59,1.01,2.53-.02.84-.36,1.6-.95,2.13-2.46,2.22-7.12,6.05-11.82,9.84-3.85,2.85-7.66,5.71-10.39,7.78,2.05-2.75,4.9-6.6,7.74-10.49,3.75-4.71,7.55-9.39,9.75-11.85.53-.59,1.28-.92,2.11-.95Zm-9.74-6.65c.32-.1.65-.14.98-.14.6,0,1.21.16,1.74.46.82.47,1.41,1.27,1.63,2.19.2.82.07,1.63-.37,2.3-1.8,2.78-5.31,7.68-8.86,12.55-2.99,3.75-5.93,7.5-8.04,10.21,1.27-3.19,3.02-7.64,4.76-12.13,2.4-5.53,4.86-11.02,6.36-13.98.36-.7.99-1.22,1.8-1.46Zm-12.49-2.02c.16-.77.64-1.44,1.36-1.88.55-.34,1.18-.51,1.82-.51.3,0,.6.04.89.12.91.24,1.69.86,2.14,1.69.4.74.49,1.56.24,2.32-1.02,3.15-3.14,8.78-5.31,14.4-1.92,4.4-3.79,8.79-5.13,11.96.4-3.41.94-8.18,1.46-12.97.89-5.95,1.84-11.89,2.52-15.12Zm-10.41-2.76c.65-.69,1.57-1.08,2.52-1.08s1.86.39,2.51,1.07c.58.61.87,1.38.83,2.18-.17,3.31-.76,9.3-1.4,15.28-.71,4.75-1.38,9.47-1.86,12.88-.5-3.39-1.2-8.12-1.95-12.88-.68-5.99-1.3-11.98-1.48-15.29-.04-.79.25-1.56.83-2.16Zm-11.59,2.19c.45-.83,1.24-1.45,2.15-1.7.29-.08.6-.12.89-.12.63,0,1.26.17,1.81.51.72.44,1.2,1.11,1.37,1.89.69,3.24,1.68,9.18,2.61,15.13.54,4.77,1.12,9.5,1.54,12.91-1.36-3.15-3.27-7.55-5.22-11.95-2.21-5.61-4.35-11.22-5.38-14.37-.25-.75-.16-1.57.24-2.3Zm-10.63,5.12c.22-.92.82-1.72,1.64-2.2.53-.31,1.13-.46,1.74-.46.33,0,.66.05.97.14.81.24,1.45.76,1.81,1.47,1.5,2.95,3.99,8.42,6.43,13.93,1.76,4.47,3.54,8.9,4.83,12.09-2.13-2.69-5.11-6.44-8.13-10.19-3.58-4.85-7.12-9.72-8.93-12.49-.43-.66-.56-1.47-.37-2.28Zm-7.93,5.15c.65-.65,1.54-1.02,2.45-1.02.03,0,.06,0,.09,0,.84.02,1.6.36,2.13.95,2.22,2.46,6.04,7.12,9.83,11.81,2.85,3.86,5.72,7.67,7.79,10.41-2.75-2.04-6.59-4.89-10.47-7.72-4.72-3.76-9.41-7.56-11.87-9.77-.59-.53-.92-1.28-.95-2.11-.03-.95.34-1.88,1.01-2.55Zm-7.66,12.29c-.27-.91-.15-1.9.32-2.72.47-.82,1.27-1.41,2.19-1.63.25-.06.5-.09.74-.09.56,0,1.1.15,1.56.46,2.78,1.8,7.69,5.32,12.57,8.88,4.37,3.48,8.74,6.89,11.45,9-6.61-2.79-21.69-9.21-27.37-12.09-.7-.36-1.22-.99-1.46-1.8Zm34.5,15.73c1.09-1.83,3.13-3.06,5.46-3.19h.83c.41.02.81.08,1.19.17l.47.13c1.67.51,3.08,1.61,3.9,3.07l-11.86-.17Zm46.17-15.75c-.24.81-.76,1.45-1.47,1.81-5.66,2.89-20.66,9.41-27.26,12.25,2.69-2.12,7.06-5.58,11.42-9.11,4.85-3.59,9.73-7.12,12.5-8.93.46-.3.99-.45,1.55-.45.24,0,.49.03.74.09.92.22,1.72.82,2.2,1.64.47.82.59,1.81.32,2.71Z"/>
  <path class="cls-1" d="m189.78,85.8c-.95-1.64-2.54-2.83-4.38-3.27-.6-.14-1.21-.2-1.81-.17.18-.57.3-1.16.32-1.78.05-1.88-.69-3.73-2.02-5.06s-3.19-2.1-5.08-2.02c-.62.02-1.2.14-1.76.32.02-.6-.03-1.21-.18-1.82-.44-1.83-1.63-3.42-3.26-4.37-1.64-.95-3.62-1.18-5.43-.64-.59.18-1.12.45-1.62.76-.13-.59-.34-1.16-.64-1.71-.9-1.66-2.46-2.88-4.28-3.37-1.83-.49-3.8-.2-5.41.79-.53.32-.97.72-1.37,1.16-.28-.53-.63-1.03-1.06-1.49-1.3-1.37-3.12-2.15-5.01-2.15s-3.72.79-5.02,2.16c-.43.45-.78.95-1.05,1.48-.41-.44-.85-.84-1.38-1.17-1.6-.98-3.57-1.27-5.4-.78-1.83.49-3.39,1.72-4.29,3.39-.3.55-.5,1.12-.64,1.7-.5-.32-1.04-.59-1.64-.77-1.81-.54-3.78-.3-5.41.64-1.64.95-2.83,2.54-3.27,4.38-.14.6-.2,1.21-.17,1.8-.57-.18-1.16-.3-1.78-.32-1.88-.03-3.73.69-5.06,2.02-1.34,1.34-2.08,3.19-2.02,5.08.02.62.14,1.2.32,1.76-.6-.02-1.21.03-1.82.18-1.83.44-3.42,1.63-4.36,3.26-.95,1.64-1.18,3.62-.64,5.43.51,1.72,1.65,3.1,3.21,3.89,7.38,3.74,29.43,12.97,30.74,13.52.03.04.05.09.09.13.32.39.8.62,1.31.63l16.71.24h.02c.45,0,.89-.18,1.21-.5.11-.11.2-.23.27-.36,2.1-.9,23.32-9.98,30.53-13.66,1.56-.8,2.7-2.18,3.21-3.9.53-1.81.3-3.78-.64-5.41Zm-12.88-8.86s.06,0,.09,0c.92,0,1.8.37,2.45,1.02.67.67,1.04,1.59,1.01,2.53-.02.84-.36,1.6-.95,2.13-2.46,2.22-7.12,6.05-11.82,9.84-3.85,2.85-7.66,5.71-10.39,7.78,2.05-2.75,4.9-6.6,7.74-10.49,3.75-4.71,7.55-9.39,9.75-11.85.53-.59,1.28-.92,2.11-.95Zm-9.74-6.65c.32-.1.65-.14.98-.14.6,0,1.21.16,1.74.46.82.47,1.41,1.27,1.63,2.19.2.82.07,1.63-.37,2.3-1.8,2.78-5.31,7.68-8.86,12.55-2.99,3.75-5.93,7.5-8.04,10.21,1.27-3.19,3.02-7.64,4.76-12.13,2.4-5.53,4.86-11.02,6.36-13.98.36-.7.99-1.22,1.8-1.46Zm-12.49-2.02c.16-.77.64-1.44,1.36-1.88.55-.34,1.18-.51,1.82-.51.3,0,.6.04.89.12.91.24,1.69.86,2.14,1.69.4.74.49,1.56.24,2.32-1.02,3.15-3.14,8.78-5.31,14.4-1.92,4.4-3.79,8.79-5.13,11.96.4-3.41.94-8.18,1.46-12.97.89-5.95,1.84-11.89,2.52-15.12Zm-10.41-2.76c.65-.69,1.57-1.08,2.52-1.08s1.86.39,2.51,1.07c.58.61.87,1.38.83,2.18-.17,3.31-.76,9.3-1.4,15.28-.71,4.75-1.38,9.47-1.86,12.88-.5-3.39-1.2-8.12-1.95-12.88-.68-5.99-1.3-11.98-1.48-15.29-.04-.79.25-1.56.83-2.16Zm-11.59,2.19c.45-.83,1.24-1.45,2.15-1.7.29-.08.6-.12.89-.12.63,0,1.26.17,1.81.51.72.44,1.2,1.11,1.37,1.89.69,3.24,1.68,9.18,2.61,15.13.54,4.77,1.12,9.5,1.54,12.91-1.36-3.15-3.27-7.55-5.22-11.95-2.21-5.61-4.35-11.22-5.38-14.37-.25-.75-.16-1.57.24-2.3Zm-10.63,5.12c.22-.92.82-1.72,1.64-2.2.53-.31,1.13-.46,1.74-.46.33,0,.66.05.97.14.81.24,1.45.76,1.81,1.47,1.5,2.95,3.99,8.42,6.43,13.93,1.76,4.47,3.54,8.9,4.83,12.09-2.13-2.69-5.11-6.44-8.13-10.19-3.58-4.85-7.12-9.72-8.93-12.49-.43-.66-.56-1.47-.37-2.28Zm-7.93,5.15c.65-.65,1.54-1.02,2.45-1.02.03,0,.06,0,.09,0,.84.02,1.6.36,2.13.95,2.22,2.46,6.04,7.12,9.83,11.81,2.85,3.86,5.72,7.67,7.79,10.41-2.75-2.04-6.59-4.89-10.47-7.72-4.72-3.76-9.41-7.56-11.87-9.77-.59-.53-.92-1.28-.95-2.11-.03-.95.34-1.88,1.01-2.55Zm-7.66,12.29c-.27-.91-.15-1.9.32-2.72.47-.82,1.27-1.41,2.19-1.63.25-.06.5-.09.74-.09.56,0,1.1.15,1.56.46,2.78,1.8,7.69,5.32,12.57,8.88,4.37,3.48,8.74,6.89,11.45,9-6.61-2.79-21.69-9.21-27.37-12.09-.7-.36-1.22-.99-1.46-1.8Zm34.5,15.73c1.09-1.83,3.13-3.06,5.46-3.19h.83c.41.02.81.08,1.19.17l.47.13c1.67.51,3.08,1.61,3.9,3.07l-11.86-.17Zm46.17-15.75c-.24.81-.76,1.45-1.47,1.81-5.66,2.89-20.66,9.41-27.26,12.25,2.69-2.12,7.06-5.58,11.42-9.11,4.85-3.59,9.73-7.12,12.5-8.93.46-.3.99-.45,1.55-.45.24,0,.49.03.74.09.92.22,1.72.82,2.2,1.64.47.82.59,1.81.32,2.71Z"/>
  <path class="cls-1" d="m94.06,85.8c-.95-1.64-2.54-2.83-4.38-3.27-.6-.14-1.21-.2-1.81-.17.18-.57.3-1.16.32-1.78.05-1.88-.69-3.73-2.02-5.06s-3.19-2.1-5.08-2.02c-.62.02-1.2.14-1.76.32.02-.6-.03-1.21-.18-1.82-.44-1.83-1.63-3.42-3.26-4.37-1.64-.95-3.62-1.18-5.43-.64-.59.18-1.12.45-1.62.76-.13-.59-.34-1.16-.64-1.71-.9-1.66-2.46-2.88-4.28-3.37-1.83-.49-3.8-.2-5.41.79-.53.32-.97.72-1.37,1.16-.28-.53-.63-1.03-1.06-1.49-1.3-1.37-3.12-2.15-5.01-2.15s-3.72.79-5.02,2.16c-.43.45-.78.95-1.05,1.48-.41-.44-.85-.84-1.38-1.17-1.6-.98-3.57-1.27-5.4-.78-1.83.49-3.39,1.72-4.29,3.39-.3.55-.5,1.12-.64,1.7-.5-.32-1.04-.59-1.64-.77-1.81-.54-3.78-.3-5.41.64-1.64.95-2.83,2.54-3.27,4.38-.14.6-.2,1.21-.17,1.8-.57-.18-1.16-.3-1.78-.32-1.88-.03-3.73.69-5.06,2.02-1.34,1.34-2.08,3.19-2.02,5.08.02.62.14,1.2.32,1.76-.6-.02-1.21.03-1.82.18-1.83.44-3.42,1.63-4.36,3.26-.95,1.64-1.18,3.62-.64,5.43.51,1.72,1.65,3.1,3.21,3.89,7.38,3.74,29.43,12.97,30.74,13.52.03.04.05.09.09.13.32.39.8.62,1.31.63l16.71.24h.02c.45,0,.89-.18,1.21-.5.11-.11.2-.23.27-.36,2.1-.9,23.32-9.98,30.53-13.66,1.56-.8,2.7-2.18,3.21-3.9.53-1.81.3-3.78-.64-5.41Zm-12.88-8.86s.06,0,.09,0c.92,0,1.8.37,2.45,1.02.67.67,1.04,1.59,1.01,2.53-.02.84-.36,1.6-.95,2.13-2.46,2.22-7.12,6.05-11.82,9.84-3.85,2.85-7.66,5.71-10.39,7.78,2.05-2.75,4.9-6.6,7.74-10.49,3.75-4.71,7.55-9.39,9.75-11.85.53-.59,1.28-.92,2.11-.95Zm-9.74-6.65c.32-.1.65-.14.98-.14.6,0,1.21.16,1.74.46.82.47,1.41,1.27,1.63,2.19.2.82.07,1.63-.37,2.3-1.8,2.78-5.31,7.68-8.86,12.55-2.99,3.75-5.93,7.5-8.04,10.21,1.27-3.19,3.02-7.64,4.76-12.13,2.4-5.53,4.86-11.02,6.36-13.98.36-.7.99-1.22,1.8-1.46Zm-12.49-2.02c.16-.77.64-1.44,1.36-1.88.55-.34,1.18-.51,1.82-.51.3,0,.6.04.89.12.91.24,1.69.86,2.14,1.69.4.74.49,1.56.24,2.32-1.02,3.15-3.14,8.78-5.31,14.4-1.92,4.4-3.79,8.79-5.13,11.96.4-3.41.94-8.18,1.46-12.97.89-5.95,1.84-11.89,2.52-15.12Zm-10.41-2.76c.65-.69,1.57-1.08,2.52-1.08s1.86.39,2.51,1.07c.58.61.87,1.38.83,2.18-.17,3.31-.76,9.3-1.4,15.28-.71,4.75-1.38,9.47-1.86,12.88-.5-3.39-1.2-8.12-1.95-12.88-.68-5.99-1.3-11.98-1.48-15.29-.04-.79.25-1.56.83-2.16Zm-11.59,2.19c.45-.83,1.24-1.45,2.15-1.7.29-.08.6-.12.89-.12.63,0,1.26.17,1.81.51.72.44,1.2,1.11,1.37,1.89.69,3.24,1.68,9.18,2.61,15.13.54,4.77,1.12,9.5,1.54,12.91-1.36-3.15-3.27-7.55-5.22-11.95-2.21-5.61-4.35-11.22-5.38-14.37-.25-.75-.16-1.57.24-2.3Zm-10.63,5.12c.22-.92.82-1.72,1.64-2.2.53-.31,1.13-.46,1.74-.46.33,0,.66.05.97.14.81.24,1.45.76,1.81,1.47,1.5,2.95,3.99,8.42,6.43,13.93,1.76,4.47,3.54,8.9,4.83,12.09-2.13-2.69-5.11-6.44-8.13-10.19-3.58-4.85-7.12-9.72-8.93-12.49-.43-.66-.56-1.47-.37-2.28Zm-7.93,5.15c.65-.65,1.54-1.02,2.45-1.02.03,0,.06,0,.09,0,.84.02,1.6.36,2.13.95,2.22,2.46,6.04,7.12,9.83,11.81,2.85,3.86,5.72,7.67,7.79,10.41-2.75-2.04-6.59-4.89-10.47-7.72-4.72-3.76-9.41-7.56-11.87-9.77-.59-.53-.92-1.28-.95-2.11-.03-.95.34-1.88,1.01-2.55Zm-7.66,12.29c-.27-.91-.15-1.9.32-2.72.47-.82,1.27-1.41,2.19-1.63.25-.06.5-.09.74-.09.56,0,1.1.15,1.56.46,2.78,1.8,7.69,5.32,12.57,8.88,4.37,3.48,8.74,6.89,11.45,9-6.61-2.79-21.69-9.21-27.37-12.09-.7-.36-1.22-.99-1.46-1.8Zm34.5,15.73c1.09-1.83,3.13-3.06,5.46-3.19h.83c.41.02.81.08,1.19.17l.47.13c1.67.51,3.08,1.61,3.9,3.07l-11.86-.17Zm46.17-15.75c-.24.81-.76,1.45-1.47,1.81-5.66,2.89-20.66,9.41-27.26,12.25,2.69-2.12,7.06-5.58,11.42-9.11,4.85-3.59,9.73-7.12,12.5-8.93.46-.3.99-.45,1.55-.45.24,0,.49.03.74.09.92.22,1.72.82,2.2,1.64.47.82.59,1.81.32,2.71Z"/>
</svg>