<?xml version="1.0" encoding="UTF-8"?>
<svg id="Calque_1" data-name="Calque 1" xmlns="http://www.w3.org/2000/svg" viewBox="0 0 180 180">
  <defs>
    <style>
      .cls-1 {
        fill: #d6a009;
      }
    </style>
  </defs>
  <path class="cls-1" d="m69.29,101.39c-3.93,0-7.72,1.45-10.73,4.16l-8.8,8.8-2.25-2.25,8.27-8.28c3.02-3.02,4.68-7.03,4.68-11.31,0-8.81-7.17-15.99-15.99-15.99s-15.99,7.17-15.99,15.99c0,4.27,1.66,8.29,4.69,11.31l8.29,8.29-2.25,2.25-8.98-8.97c-2.92-2.57-6.67-3.99-10.57-3.99-8.81,0-15.99,7.17-15.99,15.99s7.17,15.99,15.99,15.99c3.83,0,7.53-1.37,10.43-3.85l1.37-1.37.37-.2.16-.33,7.22-7.21,2.25,2.25-7.71,7.72c-.4.35-.78.73-1.11,1.11,0,0,0,.01-.01.02,0,0,0,0,0,0h0c-2.67,2.96-4.14,6.77-4.14,10.73,0,8.81,7.17,15.99,15.99,15.99s15.99-7.17,15.99-15.99c0-3.98-1.47-7.79-4.22-10.83l-.4-.4h0c-.12-.13-.25-.26-.38-.38l-7.95-7.96,2.25-2.25,8.97,8.97.11.11c2.9,2.5,6.61,3.88,10.45,3.88,8.81,0,15.99-7.17,15.99-15.99s-7.17-15.99-15.99-15.99Zm-36.53-8.88c0-6.46,5.25-11.71,11.71-11.71s11.71,5.25,11.71,11.71c0,3.14-1.22,6.08-3.42,8.29l-8.27,8.28-8.28-8.28c-2.21-2.21-3.43-5.16-3.43-8.29Zm-3.87,32.15l-1.64,1.66c-2.11,1.79-4.8,2.77-7.59,2.77-6.46,0-11.71-5.25-11.71-11.71s5.25-11.71,11.71-11.71c2.85,0,5.6,1.04,7.64,2.83l8.88,8.88-7.29,7.28Zm15.58,29.28c-6.46,0-11.71-5.25-11.71-11.71,0-2.9,1.08-5.7,3.07-7.9h0c.23-.26.47-.51.73-.73.04-.04.07-.07.11-.11l7.81-7.81,7.87,7.88h0s.03.03.05.05l.75.75c1.96,2.17,3.03,4.96,3.03,7.88,0,6.46-5.25,11.71-11.71,11.71Zm.01-34.3l-2.25-2.25h0s0,0,0,0l2.25-2.25h0s0,0,0,0l2.25,2.25-2.25,2.25Zm24.81,9.46c-2.79,0-5.48-.99-7.59-2.79l-8.91-8.92,8.72-8.72c2.15-1.93,4.91-2.99,7.79-2.99,6.46,0,11.71,5.25,11.71,11.71s-5.25,11.71-11.71,11.71Z"/>
  <path class="cls-1" d="m160.29,101.39c-3.93,0-7.72,1.45-10.73,4.16l-8.8,8.8-2.25-2.25,8.27-8.28c3.02-3.02,4.68-7.03,4.68-11.31,0-8.81-7.17-15.99-15.99-15.99s-15.99,7.17-15.99,15.99c0,4.27,1.66,8.29,4.69,11.31l8.29,8.29-2.25,2.25-8.98-8.97c-2.92-2.57-6.67-3.99-10.57-3.99-8.81,0-15.99,7.17-15.99,15.99s7.17,15.99,15.99,15.99c3.83,0,7.53-1.37,10.43-3.85l1.35-1.36.38-.19.17-.35,7.22-7.21,2.25,2.25-7.71,7.72s0,0,0,0h0c-.13.11-.24.25-.37.37-.26.24-.52.49-.74.74,0,0,0,.01-.01.02,0,0,0,0,0,0h0c-2.67,2.96-4.14,6.77-4.14,10.73,0,8.81,7.17,15.99,15.99,15.99s15.99-7.17,15.99-15.99c0-3.98-1.47-7.79-4.22-10.83l-.4-.4h0c-.12-.13-.25-.25-.38-.38l-7.95-7.96,2.25-2.25,8.97,8.97.11.11c2.9,2.5,6.61,3.88,10.45,3.88,8.81,0,15.99-7.17,15.99-15.99s-7.17-15.99-15.99-15.99Zm-36.53-8.88c0-6.46,5.25-11.71,11.71-11.71s11.71,5.25,11.71,11.71c0,3.14-1.22,6.08-3.42,8.29l-8.27,8.28-8.29-8.28c-2.21-2.21-3.43-5.16-3.43-8.29Zm-3.85,32.13l-1.66,1.67c-2.11,1.79-4.8,2.77-7.59,2.77-6.46,0-11.71-5.25-11.71-11.71s5.25-11.71,11.71-11.71c2.85,0,5.6,1.04,7.64,2.83l8.88,8.88-7.27,7.26Zm15.56,29.29c-6.46,0-11.71-5.25-11.71-11.71,0-2.9,1.08-5.7,3.07-7.9h0c.23-.26.48-.51.75-.75h0s.06-.06.1-.09l7.81-7.81,7.87,7.88h0s.03.03.05.05l.74.74c1.96,2.17,3.03,4.96,3.03,7.88,0,6.46-5.25,11.71-11.71,11.71Zm.01-34.3l-2.25-2.25,2.25-2.25h0s2.25,2.25,2.25,2.25h0s-2.25,2.25-2.25,2.25Zm24.81,9.46c-2.79,0-5.48-.99-7.59-2.79l-8.91-8.91,8.72-8.72c2.15-1.93,4.91-2.99,7.79-2.99,6.46,0,11.71,5.25,11.71,11.71s-5.25,11.71-11.71,11.71Z"/>
  <path class="cls-1" d="m105.96,87.49c0-3.98-1.47-7.79-4.21-10.82l-.41-.41h0c-.16-.17-.34-.34-.53-.52l-7.81-7.82,2.25-2.25,8.97,8.97.11.11c2.9,2.51,6.61,3.88,10.45,3.88,8.81,0,15.99-7.17,15.99-15.99s-7.17-15.99-15.99-15.99c-3.93,0-7.72,1.45-10.73,4.16l-8.8,8.8-2.25-2.25,8.27-8.29c3.01-3.01,4.67-7.03,4.67-11.31,0-8.81-7.17-15.99-15.99-15.99s-15.98,7.17-15.98,15.99c0,4.27,1.66,8.29,4.69,11.31l8.29,8.29-2.25,2.25-8.98-8.97c-2.92-2.57-6.67-3.99-10.57-3.99-8.81,0-15.99,7.17-15.99,15.99s7.17,15.99,15.99,15.99c3.83,0,7.53-1.37,10.47-3.89l1.35-1.35.32-.18.16-.3,7.25-7.24,2.25,2.25-7.71,7.72c-.4.35-.78.73-1.11,1.11,0,0,0,0,0,0,0,0,0,0-.01.01h0c-2.67,2.96-4.14,6.77-4.14,10.72,0,8.81,7.17,15.99,15.98,15.99s15.99-7.17,15.99-15.99Zm1.04-33.57c2.14-1.93,4.91-2.99,7.79-2.99,6.46,0,11.71,5.25,11.71,11.71s-5.25,11.71-11.71,11.71c-2.79,0-5.48-.99-7.59-2.79l-8.92-8.91,8.72-8.72Zm-28.74-16.15c0-6.46,5.25-11.71,11.71-11.71s11.71,5.25,11.71,11.71c0,3.14-1.21,6.08-3.42,8.29l-8.27,8.28-8.28-8.28c-2.21-2.21-3.43-5.16-3.43-8.29Zm-5.5,33.79c-2.11,1.8-4.81,2.79-7.6,2.79-6.46,0-11.71-5.25-11.71-11.71s5.25-11.71,11.71-11.71c2.85,0,5.6,1.04,7.64,2.83l8.88,8.88-8.92,8.92Zm14.97-8.92l2.25-2.25,2.25,2.25h0s-2.25,2.25-2.25,2.25l-2.25-2.25Zm2.24,36.55c-6.46,0-11.71-5.25-11.71-11.71,0-2.91,1.08-5.7,3.06-7.89.23-.26.48-.52.75-.75h0s.06-.06.1-.09l7.81-7.81,7.79,7.8.87.87c1.96,2.16,3.03,4.96,3.03,7.87,0,6.46-5.25,11.71-11.71,11.71Z"/>
</svg>