<?xml version="1.0" encoding="UTF-8"?>
<svg id="Calque_1" data-name="Calque 1" xmlns="http://www.w3.org/2000/svg" viewBox="0 0 180 180">
  <defs>
    <style>
      .cls-1 {
        fill: #d6a009;
      }
    </style>
  </defs>
  <path class="cls-1" d="m126.52,65.51c.39,0,.77-.11,1.04-.29.86-.34,1.41-1.14,1.4-2.05-.07-21.41-17.55-38.83-38.96-38.83s-38.89,17.42-38.96,38.84c0,.91.55,1.71,1.28,1.99.4.24.79.36,1.2.36,17.94.07,33.21,16.8,34.75,37.99-.09,1.36-.13,2.57-.13,3.7,0,1.36,1,2.31,2.42,2.31,1.55,0,2.55-.91,2.55-2.31,0-1.27-.05-2.59-.16-3.91,1.61-21.13,16.35-37.74,33.57-37.8Zm-2.05-4.57c-15.26,1.02-28.55,12.87-33.89,30.02-5.52-17.2-19.27-29.07-35.05-30.05,1.24-18.1,16.23-32.17,34.47-32.17s33.25,14.08,34.47,32.2Z"/>
  <path class="cls-1" d="m137.29,70.47c-21.41,0-38.89,17.42-38.96,38.83,0,.91.55,1.72,1.28,1.99.4.24.79.36,1.2.37,17.94.07,33.21,16.8,34.75,37.99-.09,1.36-.13,2.57-.13,3.7,0,1.36,1,2.31,2.42,2.31,1.55,0,2.54-.91,2.54-2.31,0-1.27-.05-2.59-.16-3.91,1.61-21.13,16.35-37.74,33.57-37.8.39,0,.76-.11,1.04-.29.85-.34,1.4-1.14,1.4-2.05h0c-.07-21.41-17.54-38.84-38.96-38.84Zm34.47,36.6c-15.26,1.02-28.55,12.87-33.89,30.02-5.52-17.2-19.27-29.06-35.05-30.05,1.24-18.1,16.23-32.17,34.47-32.17s33.25,14.08,34.47,32.2Z"/>
  <path class="cls-1" d="m42.71,70.47c-21.41,0-38.89,17.42-38.96,38.84,0,.91.55,1.72,1.28,1.99.4.24.79.36,1.2.37,17.94.07,33.21,16.8,34.75,37.99-.09,1.35-.13,2.56-.13,3.7,0,1.36,1,2.31,2.42,2.31,1.55,0,2.55-.91,2.55-2.31,0-1.27-.05-2.59-.16-3.91,1.61-21.13,16.35-37.74,33.57-37.8.38,0,.76-.11,1.04-.29.85-.34,1.4-1.14,1.4-2.05h0c-.07-21.41-17.55-38.84-38.96-38.84Zm34.47,36.6c-15.26,1.02-28.55,12.87-33.89,30.02-5.52-17.2-19.27-29.06-35.05-30.05,1.24-18.1,16.23-32.17,34.47-32.17s33.25,14.08,34.47,32.2Z"/>
</svg>