<svg xmlns="http://www.w3.org/2000/svg" width="108.469" height="75.554" viewBox="0 0 108.469 75.554">
  <g id="logo-backoffice" transform="translate(-7.257 -10.9)">
    <path id="Tracé_27" data-name="Tracé 27" d="M4.933-24.692a.784.784,0,0,1-.6-.232.906.906,0,0,1-.221-.651V-34.2A6.338,6.338,0,0,1,5.8-38.892a6.338,6.338,0,0,1,4.689-1.688,6.322,6.322,0,0,1,4.678,1.7,6.322,6.322,0,0,1,1.7,4.678v8.628a.906.906,0,0,1-.221.651.813.813,0,0,1-.618.232.821.821,0,0,1-.607-.232.88.88,0,0,1-.232-.651V-30.54H5.772v4.965a.906.906,0,0,1-.221.651A.813.813,0,0,1,4.933-24.692Zm10.261-7.216v-2.361a5.046,5.046,0,0,0-1.214-3.63,4.6,4.6,0,0,0-3.487-1.269A4.652,4.652,0,0,0,6.986-37.91a5.039,5.039,0,0,0-1.214,3.641v2.361Zm9.577,7.216a7.333,7.333,0,0,1-2.913-.585A5.256,5.256,0,0,1,19.7-26.9a.766.766,0,0,1-.154-.441.635.635,0,0,1,.121-.386.782.782,0,0,1,.32-.254.864.864,0,0,1,.287-.066.586.586,0,0,1,.342.1,2.122,2.122,0,0,1,.342.32A5,5,0,0,0,24.772-26.1a3.766,3.766,0,0,0,1.854-.4,1.22,1.22,0,0,0,.706-1.1,1.222,1.222,0,0,0-.276-.828,2.516,2.516,0,0,0-.927-.6Q25.478-29.3,24-29.811a15.04,15.04,0,0,1-2.251-.927,3.463,3.463,0,0,1-1.214-1,2.331,2.331,0,0,1-.4-1.379,2.384,2.384,0,0,1,1.114-2.052,5.119,5.119,0,0,1,2.968-.772,6.687,6.687,0,0,1,2.538.474A4.033,4.033,0,0,1,28.523-34.2a.8.8,0,0,1,.177.463.6.6,0,0,1-.353.53.852.852,0,0,1-.441.132.991.991,0,0,1-.706-.331,3.769,3.769,0,0,0-1.258-.85,4.706,4.706,0,0,0-1.743-.276,3.478,3.478,0,0,0-1.787.375,1.177,1.177,0,0,0-.618,1.059,1.2,1.2,0,0,0,.254.805,2.118,2.118,0,0,0,.816.53q.563.232,1.975.7a15.821,15.821,0,0,1,2.461,1,3.481,3.481,0,0,1,1.258,1.048,2.472,2.472,0,0,1,.386,1.412,2.452,2.452,0,0,1-1.159,2.118A5.223,5.223,0,0,1,24.772-24.692Zm11.652,5.3a8.172,8.172,0,0,1-2.913-.485,3.923,3.923,0,0,1-1.876-1.324.766.766,0,0,1-.154-.441.763.763,0,0,1,.353-.618.609.609,0,0,1,.4-.11.966.966,0,0,1,.706.353,3.3,3.3,0,0,0,1.423.916,5.783,5.783,0,0,0,2,.342A4.183,4.183,0,0,0,39.5-21.955a4.424,4.424,0,0,0,1.159-3.222v-1.5A4.4,4.4,0,0,1,38.917-25.3a5.658,5.658,0,0,1-2.339.474,5.635,5.635,0,0,1-4.2-1.534,5.821,5.821,0,0,1-1.512-4.27v-4.5a.749.749,0,0,1,.243-.563.83.83,0,0,1,.6-.232.793.793,0,0,1,.585.232.766.766,0,0,1,.232.563v4.5a4.736,4.736,0,0,0,1.07,3.3,3.831,3.831,0,0,0,2.99,1.181,3.792,3.792,0,0,0,2.935-1.125,4.551,4.551,0,0,0,1.037-3.2v-4.436a1.148,1.148,0,0,1,.232-.761.8.8,0,0,1,.651-.276.778.778,0,0,1,.629.276,1.148,1.148,0,0,1,.232.761v9.621a6.25,6.25,0,0,1-.739,3.078,5.231,5.231,0,0,1-2.063,2.074A6.187,6.187,0,0,1,36.423-19.4Zm12.909-5.3a5.407,5.407,0,0,1-3.387-.949,3.137,3.137,0,0,1-1.225-2.626,3.114,3.114,0,0,1,1.291-2.626,5.73,5.73,0,0,1,3.52-.971,6.936,6.936,0,0,1,2.306.353,3.787,3.787,0,0,1,1.556.949v-1.412a2.314,2.314,0,0,0-.828-1.92,3.8,3.8,0,0,0-2.416-.662,6.4,6.4,0,0,0-3.553.971,1.309,1.309,0,0,1-.618.221.707.707,0,0,1-.441-.177.627.627,0,0,1-.243-.508.671.671,0,0,1,.287-.552,6.083,6.083,0,0,1,2.019-.982,8.744,8.744,0,0,1,2.5-.364,5.575,5.575,0,0,1,3.63,1.059,3.638,3.638,0,0,1,1.291,2.979v6.355q0,.861-.794.861a.756.756,0,0,1-.574-.232.844.844,0,0,1-.221-.607v-.794A5.051,5.051,0,0,1,49.333-24.692Zm.2-1.346a5.376,5.376,0,0,0,2.8-.651,1.93,1.93,0,0,0,1.081-1.688,1.754,1.754,0,0,0-1-1.6,5.866,5.866,0,0,0-2.836-.563,4.133,4.133,0,0,0-2.383.585,1.931,1.931,0,0,0-.839,1.688,1.9,1.9,0,0,0,.816,1.655A4.085,4.085,0,0,0,49.531-26.038Zm15.425,1.346a.784.784,0,0,1-.6-.232.906.906,0,0,1-.221-.651V-37.711a2.558,2.558,0,0,1,.739-1.942,2.866,2.866,0,0,1,2.063-.706h6.841q.861,0,.861.706a.588.588,0,0,1-.221.485,1,1,0,0,1-.64.177H66.965a1.091,1.091,0,0,0-.85.353,1.327,1.327,0,0,0-.32.927v4.436h6.311q.861,0,.861.706a.6.6,0,0,1-.232.508,1.014,1.014,0,0,1-.629.177H65.8v6.311a.906.906,0,0,1-.221.651A.813.813,0,0,1,64.956-24.692Zm14.348,0a6.588,6.588,0,0,1-3.288-.772,5.156,5.156,0,0,1-2.063-2.063,5.8,5.8,0,0,1-.7-2.792,5.8,5.8,0,0,1,.7-2.792,5.156,5.156,0,0,1,2.063-2.063,6.588,6.588,0,0,1,3.288-.772,6.526,6.526,0,0,1,3.277.772,5.174,5.174,0,0,1,2.052,2.063,5.8,5.8,0,0,1,.7,2.792,5.8,5.8,0,0,1-.7,2.792,5.174,5.174,0,0,1-2.052,2.063A6.526,6.526,0,0,1,79.3-24.692Zm0-1.39a4.478,4.478,0,0,0,3.189-1.125,4.053,4.053,0,0,0,1.2-3.111,4.053,4.053,0,0,0-1.2-3.111A4.478,4.478,0,0,0,79.3-34.556a4.51,4.51,0,0,0-3.211,1.125,4.053,4.053,0,0,0-1.2,3.111,4.053,4.053,0,0,0,1.2,3.111A4.51,4.51,0,0,0,79.3-26.082Zm13.067,1.39a6.588,6.588,0,0,1-3.288-.772,5.156,5.156,0,0,1-2.063-2.063,5.8,5.8,0,0,1-.7-2.792,5.8,5.8,0,0,1,.7-2.792,5.156,5.156,0,0,1,2.063-2.063,6.588,6.588,0,0,1,3.288-.772,6.526,6.526,0,0,1,3.277.772A5.174,5.174,0,0,1,97.7-33.11a5.8,5.8,0,0,1,.7,2.792,5.8,5.8,0,0,1-.7,2.792,5.174,5.174,0,0,1-2.052,2.063A6.526,6.526,0,0,1,92.372-24.692Zm0-1.39a4.478,4.478,0,0,0,3.189-1.125,4.053,4.053,0,0,0,1.2-3.111,4.053,4.053,0,0,0-1.2-3.111,4.478,4.478,0,0,0-3.189-1.125,4.51,4.51,0,0,0-3.211,1.125,4.053,4.053,0,0,0-1.2,3.111,4.053,4.053,0,0,0,1.2,3.111A4.51,4.51,0,0,0,92.372-26.082Zm13.858,1.39a6.031,6.031,0,0,1-4.314-1.49,5.33,5.33,0,0,1-1.578-4.071,6.068,6.068,0,0,1,.7-2.924,5,5,0,0,1,2.03-2.03,6.535,6.535,0,0,1,3.211-.739,5.667,5.667,0,0,1,2.7.6,6.47,6.47,0,0,1,1.975,1.655l.022-7.084a.936.936,0,0,1,.21-.651.777.777,0,0,1,.607-.232.748.748,0,0,1,.585.232.936.936,0,0,1,.21.651v15.2a.936.936,0,0,1-.21.651.748.748,0,0,1-.585.232.784.784,0,0,1-.6-.232.906.906,0,0,1-.221-.651v-1.412A5.029,5.029,0,0,1,109-25.277,6.258,6.258,0,0,1,106.23-24.692Zm.132-1.39a4.8,4.8,0,0,0,3.376-1.136,4,4,0,0,0,1.236-3.1,4.034,4.034,0,0,0-.629-2.262,4.1,4.1,0,0,0-1.677-1.467,5.171,5.171,0,0,0-2.284-.508,4.361,4.361,0,0,0-3.244,1.181,4.243,4.243,0,0,0-1.17,3.123,4.02,4.02,0,0,0,1.147,3.123A4.638,4.638,0,0,0,106.362-26.082Z" transform="translate(3.14 105.85)" fill="#d6a009"/>
    <path id="Tracé_26" data-name="Tracé 26" d="M135.608,28.73a2.278,2.278,0,0,0-1.789-.816c-1.588.016-3.244,1.536-3.791,2.083l-2.951-3.369c.507-.619,3.14-4.056,1.2-6.272a2.294,2.294,0,0,0-1.8-.816c-1.6.02-3.24,1.536-3.783,2.083l-2.955-3.377a.184.184,0,0,1,.008-.02c.169-.189.378-.422.563-.631.462-.519.989-1.1,1.246-1.419a3.562,3.562,0,0,0,.306-3.578A2.964,2.964,0,0,0,119.02,10.9h0c-.016,0-.028,0-.044,0a2.957,2.957,0,0,0-2.846,1.693,3.572,3.572,0,0,0,.306,3.578c.257.318.784.9,1.246,1.419.2.225.434.482.607.679l-2.931,3.349c-.535-.555-2.151-2.078-3.763-2.1a2.336,2.336,0,0,0-1.817.832c-1.914,2.187.7,5.644,1.2,6.272l-2.947,3.369c-.535-.555-2.147-2.078-3.763-2.1a2.32,2.32,0,0,0-1.821.832c-1.918,2.187.7,5.644,1.2,6.272h0c-.507.627-3.116,4.081-1.2,6.272a2.319,2.319,0,0,0,1.789.832h.032c1.616-.02,3.228-1.544,3.763-2.1l2.947,3.369c-.507.627-3.116,4.081-1.2,6.272a2.319,2.319,0,0,0,1.789.832h.028c1.612-.02,3.228-1.544,3.763-2.1l2.947,3.369a.9.9,0,0,0-.052.08c-.157.177-.346.39-.515.575-.462.515-.989,1.1-1.246,1.415a3.562,3.562,0,0,0-.306,3.578,2.964,2.964,0,0,0,2.846,1.693h0c.016,0,.032,0,.048,0a2.957,2.957,0,0,0,2.846-1.693,3.572,3.572,0,0,0-.306-3.578c-.257-.318-.784-.9-1.246-1.419-.2-.225-.434-.482-.607-.679l2.931-3.349c.543.551,2.179,2.062,3.783,2.083h.036a2.294,2.294,0,0,0,1.765-.816c1.938-2.215-.7-5.653-1.2-6.272L130.032,40c.547.547,2.2,2.066,3.791,2.083h.028a2.294,2.294,0,0,0,1.765-.816c1.95-2.227-.7-5.661-1.2-6.276.507-.615,3.152-4.048,1.2-6.276Zm-16.58,22.192-2.939-3.357,2.939-3.357,2.939,3.357Zm0-31.837,2.939,3.357L119.028,25.8l-2.939-3.357ZM118.3,35l-2.939,3.357L112.427,35l2.939-3.357Zm-2.215-4.185,2.939-3.357,2.939,3.357-2.939,3.357Zm2.939,5.013,2.939,3.357-2.939,3.357-2.939-3.357Zm.724-.828,2.939-3.357L125.629,35l-2.939,3.357Zm3.662-4.185,2.939-3.357,2.939,3.357-2.939,3.357Zm-.724-.828-2.939-3.357,2.939-3.357,2.939,3.357Zm-4.39-3.357-2.939,3.357-2.939-3.357,2.939-3.357Zm-6.605.828,2.939,3.357L111.7,34.173l-2.939-3.357L111.7,27.46Zm-.724,7.546-2.939,3.357-2.939-3.357,2.939-3.357Zm.724.828,2.939,3.357L111.7,42.548l-2.939-3.357Zm3.662,4.185,2.939,3.357-2.939,3.357-2.939-3.357Zm7.329,6.718-2.939-3.357,2.939-3.357,2.939,3.357Zm3.662-4.185-2.939-3.357,2.939-3.357,2.939,3.357Zm3.662-4.185-2.939-3.357,2.939-3.357,2.939,3.357Zm3.823-9.355h.012a1.179,1.179,0,0,1,.933.442c1.242,1.419-.555,3.992-1.11,4.716l-2.927-3.345c.527-.555,1.962-1.813,3.1-1.813Zm-7.329-8.374h.012a1.179,1.179,0,0,1,.933.442c1.238,1.415-.555,3.988-1.11,4.716l-2.927-3.345c.527-.551,1.962-1.813,3.1-1.813Zm-9.239-5.15a2.523,2.523,0,0,1-.165-2.42A1.9,1.9,0,0,1,118.964,12h0c.016,0,.028,0,.044,0a1.905,1.905,0,0,1,1.861,1.065,2.521,2.521,0,0,1-.165,2.42c-.245.3-.76.872-1.214,1.383-.181.205-.358.4-.5.563-.149-.165-.322-.362-.507-.567C118.027,16.364,117.508,15.785,117.267,15.487Zm-6.682,5.592a1.214,1.214,0,0,1,.965-.458h0c1.142,0,2.569,1.286,3.071,1.829L111.695,25.8c-.559-.752-2.32-3.333-1.114-4.716Zm-7.329,8.374a1.214,1.214,0,0,1,.965-.458h0c1.142,0,2.569,1.286,3.072,1.829l-2.927,3.345c-.563-.752-2.32-3.333-1.114-4.716Zm.969,11.57h0a1.209,1.209,0,0,1-.965-.458c-1.21-1.383.551-3.964,1.114-4.716l2.927,3.345c-.515.555-1.934,1.829-3.072,1.829Zm7.329,8.374h0a1.209,1.209,0,0,1-.965-.458c-1.21-1.383.551-3.964,1.114-4.716l2.927,3.345c-.515.555-1.934,1.829-3.072,1.829Zm9.215,5.13a2.523,2.523,0,0,1,.165,2.42,1.9,1.9,0,0,1-1.861,1.065h0c-.016,0-.032,0-.048,0a1.905,1.905,0,0,1-1.861-1.065,2.523,2.523,0,0,1,.165-2.42c.241-.3.76-.872,1.214-1.379.185-.205.358-.4.5-.563.149.165.322.362.507.567.454.507.973,1.085,1.214,1.383Zm6.682-5.592a1.192,1.192,0,0,1-.933.442h-.008c-1.146,0-2.621-1.323-3.1-1.813l2.927-3.345c.563.736,2.348,3.3,1.11,4.716Zm7.329-8.374a1.192,1.192,0,0,1-.933.442h-.012c-1.134,0-2.569-1.262-3.1-1.813l2.927-3.345c.563.736,2.348,3.3,1.11,4.716Z" transform="translate(-56.507 0)" fill="#bd1000"/>
  </g>
</svg>
